HIERARCHY
ROOT Hips
{
  OFFSET -181.334 92.7799 -217.247
  CHANNELS 6 Xposition Yposition Zposition Zrotation Xrotation Yrotation
  JOINT ToSpine
  {
    OFFSET -2.69724 7.43032 -0.144315
    CHANNELS 3 Zrotation Xrotation Yrotation
    JOINT Spine
    {
      OFFSET -0.0310711 10.7595 1.96963
      CHANNELS 3 Zrotation Xrotation Yrotation
      JOINT Spine1
      {
        OFFSET 13.1342 3.43533 0.764692
        CHANNELS 3 Zrotation Xrotation Yrotation
        JOINT Neck
        {
          OFFSET 29.8703 7.82586 -0.130764
          CHANNELS 3 Zrotation Xrotation Yrotation
          JOINT Head
          {
            OFFSET 9.52751 0.295786 -0.907742
            CHANNELS 3 Zrotation Xrotation Yrotation
            End Site
            {
              OFFSET 16.4037 0.713936 2.7358
            }
          }
        }
        JOINT LeftShoulder
        {
          OFFSET 27.5574 4.95586 2.47156
          CHANNELS 3 Zrotation Xrotation Yrotation
          JOINT LeftArm
          {
            OFFSET 1.20734 -0.998971 20.1238
            CHANNELS 3 Zrotation Xrotation Yrotation
            JOINT LeftForeArm
            {
              OFFSET 26.8049 -0.0536703 -0.155908
              CHANNELS 3 Zrotation Xrotation Yrotation
              JOINT LeftHand
              {
                OFFSET 26.6817 0 0.320147
                CHANNELS 3 Zrotation Xrotation Yrotation
                End Site
                {
                  OFFSET 18.6119 0 0.382219
                }
              }
            }
          }
        }
        JOINT RightShoulder
        {
          OFFSET 27.5927 4.71444 -2.65209
          CHANNELS 3 Zrotation Xrotation Yrotation
          JOINT RightArm
          {
            OFFSET 2.83739 -1.17114 -18.7564
            CHANNELS 3 Zrotation Xrotation Yrotation
            JOINT RightForeArm
            {
              OFFSET 28.839 -0.0548439 1.22491
              CHANNELS 3 Zrotation Xrotation Yrotation
              JOINT RightHand
              {
                OFFSET 26.5114 0 -0.101894
                CHANNELS 3 Zrotation Xrotation Yrotation
                End Site
                {
                  OFFSET 18.2168 0 0
                }
              }
            }
          }
        }
      }
    }
  }
  JOINT LeftUpLeg
  {
    OFFSET -4.76168 -1.9167 -10.2353
    CHANNELS 3 Zrotation Xrotation Yrotation
    JOINT LeftLeg
    {
      OFFSET 2.55951 -42.0585 -8.02213
      CHANNELS 3 Zrotation Xrotation Yrotation
      JOINT LeftFoot
      {
        OFFSET 3.16357 -42.5282 -3.95426
        CHANNELS 3 Zrotation Xrotation Yrotation
        JOINT LeftToeBase
        {
          OFFSET 0.346054 -6.02161 12.8035
          CHANNELS 3 Zrotation Xrotation Yrotation
          End Site
          {
            OFFSET 0.134235 -1.35082 5.13018
          }
        }
      }
    }
  }
  JOINT RightUpLeg
  {
    OFFSET -4.94151 -1.41743 10.6446
    CHANNELS 3 Zrotation Xrotation Yrotation
    JOINT RightLeg
    {
      OFFSET -2.56294 -42.0364 -7.94377
      CHANNELS 3 Zrotation Xrotation Yrotation
      JOINT RightFoot
      {
        OFFSET -3.0952 -42.555 -4.02241
        CHANNELS 3 Zrotation Xrotation Yrotation
        JOINT RightToeBase
        {
          OFFSET -0.0828122 -6.13587 12.8035
          CHANNELS 3 Zrotation Xrotation Yrotation
          End Site
          {
            OFFSET -0.131328 -1.35082 5.13018
          }
        }
      }
    }
  }
}
MOTION
Frames:	8
Frame Time:	0.0333333
-279.374 87.7683 -285.206 60.8409 -31.0604 -15.3837 -70.1915 0 88.8779 125.623 68.9545 -34.1496 -6.08804 21.7762 4.07573 -164.323 26.6226 178.296 -153.867 66.1042 -174.404 -0.301622 -15.5039 -36.1057 -74.4334 49.8259 -74.7642 10.4957 9.16434 -48.9388 0.420957 0.000574826 0.35866 -2.04275 6.75172 44.6451 -76.8746 -33.0081 72.687 15.4017 -8.75535 61.0395 0.58676 0.000331098 0.0646654 -34.4496 6.27628 92.4622 -147.774 80.7049 139.284 -3.0067 7.53246 1.0763 7.52083 -16.4107 11.1385 -28.399 9.63384 83.3047 2.71353 56.4867 -5.47564 -17.144 -19.9525 0.917517 2.53944 -6.62962 -16.6618 
-271.871 88.9125 -280.015 59.3984 -32.1115 -17.925 -70.1915 0 88.8779 124.634 71.0164 -34.4629 -6.35444 23.5883 4.07306 -161.386 28.3128 176.449 -152.418 67.6194 -174.618 0.0481443 -14.2575 -35.2707 -72.4426 52.1386 -69.8218 10.5045 8.43922 -51.257 0.420957 0.000574826 0.35866 -1.9509 6.71741 43.4784 -79.1291 -35.1646 77.1935 14.9729 -6.41643 67.2597 0.58676 0.000331098 0.0646654 -23.4664 5.97676 93.094 -138.509 83.8135 137.587 -1.65955 4.42102 0.530524 5.86731 -12.9858 3.74169 -35.145 8.45183 84.7631 3.58184 55.3361 -0.251402 -6.14285 -25.932 1.59727 2.90627 -0.420144 -18.0976 
-263.495 90.9 -273.903 58.5362 -32.5442 -18.8896 -70.1915 0 88.8779 118.616 73.6458 -28.7509 -5.1027 25.0211 3.91765 -159.932 30.177 175.845 -153.453 69.5786 -173.554 0.52123 -12.4853 -33.5096 -68.6408 55.0686 -67.6233 11.725 8.35772 -54.5732 0.420957 0.000574826 0.35866 -1.78253 6.60772 41.4875 -80.9368 -37.836 80.2699 17.6682 -4.39402 76.3443 0.58676 0.000331098 0.0646654 -17.4005 6.17068 93.7068 -26.5826 82.6092 26.7156 -1.67426 3.2466 0.42516 6.60224 -14.8397 9.80564 -44.8259 8.67314 86.8278 2.11399 48.283 -2.66446 -8.10075 -18.6598 1.33644 1.86686 -13.8051 -4.37612 
-254.449 93.4628 -267.717 58.3808 -32.3446 -19.7224 -70.1915 0 88.8779 112.823 75.8186 -24.1408 -5.04922 26.0455 4.71358 -158.932 32.3678 174.308 -152.344 71.6934 -174.879 0.754337 -11.5765 -31.497 -66.1974 58.4097 -64.9421 9.98256 6.42454 -57.1653 0.420957 0.000574826 0.35866 -1.6715 6.48123 40.3524 -81.1542 -39.8899 81.6889 24.9329 -2.6971 84.0311 0.58676 0.000331098 0.0646654 -16.5722 4.53221 94.5669 -5.30349 64.7788 5.29322 -3.08392 3.97317 0.722432 7.82469 -16.854 9.51606 -54.5919 6.79123 87.5944 1.69677 40.7753 -0.880242 -5.7868 -6.79228 1.08278 2.775 -21.3155 4.25145 
-244.725 95.7903 -262.001 58.8161 -31.2837 -20.6586 -70.1915 0 88.8779 106.072 76.4606 -16.782 -3.96067 26.6652 2.20514 -159.675 33.9702 173.546 -150.608 73.1451 -177.807 0.949296 -10.6844 -29.5435 -69.5415 60.8462 -58.1406 9.14698 5.32295 -59.6725 0.420957 0.000574826 0.35866 -1.66532 6.49938 40.184 -80.2883 -40.631 82.0641 26.6976 1.00645 91.7733 0.58676 0.000331098 0.0646654 -19.4774 0.158985 94.0337 -2.26189 42.7451 -1.89378 -8.51732 6.76805 2.03807 4.67705 -11.5279 9.2034 -63.1677 1.66013 81.9999 1.09087 33.756 9.15556 -2.51246 8.61866 -0.000601887 3.52824 -24.9446 6.12047 
-235.32 97.8334 -255.802 58.1335 -31.87 -20.6458 -70.1915 0 88.8779 89.1866 77.7506 2.26204 -0.105443 27.7403 0.290245 -161.485 35.2235 174.475 -152.421 74.526 -178.185 1.07203 -10.028 -28.1814 -74.1525 61.9474 -51.306 11.6311 5.79673 -63.4002 0.420957 0.000574826 0.35866 -1.55252 6.45273 38.6536 -76.7827 -42.295 83.1995 26.3287 3.89384 97.5593 0.58676 0.000331098 0.0646654 -22.7429 -0.768779 93.4246 -1.62382 25.019 -9.0323 -11.4026 15.2374 4.06847 5.63718 -12.9815 7.47423 -68.8265 1.36598 81.1791 0.105588 31.0653 17.0323 8.30634 10.5722 -2.50778 2.61753 0.826097 -16.1293 
-226.812 98.3547 -249.962 56.7076 -32.2431 -20.8803 -70.1915 0 88.8779 69.7298 77.0924 23.6443 3.44513 28.3287 -1.74196 -160.886 35.7967 173.419 -151.076 74.9615 179.628 1.2387 -9.00999 -26.9202 -79.4605 61.5138 -44.7202 14.5877 6.13847 -67.1367 0.420957 0.000574826 0.35866 -1.4662 6.32891 37.8021 -73.9832 -42.8872 84.0096 26.5823 4.9651 99.5499 0.58676 0.000331098 0.0646654 -22.4843 -0.67586 93.7497 -1.67001 19.4547 -9.58274 -13.6368 16.8544 4.97636 5.26566 -12.1326 5.94308 -68.9146 3.32492 87.7584 1.89405 36.6846 3.57971 -0.650766 17.2747 -0.987184 1.84165 -12.0737 -6.5645 
-218.464 97.9243 -244.116 59.6421 -33.7845 -18.7569 -70.1915 0 88.8779 81.3891 77.6443 11.8127 1.78214 28.2466 -1.28956 -157.948 35.372 171.644 -151.535 74.5919 -178.966 1.27801 -8.78854 -27.1369 -84.1209 59.2226 -39.8026 14.5296 5.26111 -69.9725 0.420957 0.000574826 0.35866 -1.52186 6.38471 38.45 -71.8933 -43.0079 83.0629 23.3677 3.00067 96.655 0.58676 0.000331098 0.0646654 -25.9144 -0.425238 94.7933 -2.0668 21.7178 -6.57236 -13.7616 16.9591 5.03184 2.87316 -6.42031 0.694914 -69.2391 3.78224 87.9904 2.01622 48.1935 -2.949 -2.198 16.6124 -0.520551 1.89267 -9.46398 -9.36412 
